<?xml version="1.0" encoding="utf-8"?>
<!-- Generator: Adobe Illustrator 19.1.0, SVG Export Plug-In . SVG Version: 6.00 Build 0)  -->
<svg version="1.1" id="Layer_1" xmlns="http://www.w3.org/2000/svg" xmlns:xlink="http://www.w3.org/1999/xlink" x="0px" y="0px"
	 viewBox="0 0 90.828 141.183" enable-background="new 0 0 90.828 141.183" xml:space="preserve">
<g>
	<path fill="#000000" d="M11.593,4.602c-0.208-0.333-0.466-0.624-0.776-0.876c-0.311-0.251-0.662-0.447-1.054-0.588
		c-0.392-0.14-0.802-0.21-1.231-0.21c-0.783,0-1.449,0.152-1.996,0.455c-0.547,0.304-0.99,0.71-1.33,1.22
		c-0.341,0.51-0.588,1.09-0.743,1.741C4.307,6.994,4.23,7.666,4.23,8.361c0,0.665,0.077,1.312,0.233,1.94
		c0.155,0.628,0.403,1.194,0.743,1.697c0.34,0.503,0.783,0.905,1.33,1.209c0.547,0.303,1.213,0.455,1.996,0.455
		c1.065,0,1.896-0.325,2.495-0.975c0.599-0.651,0.965-1.508,1.098-2.572h3.371c-0.089,0.99-0.318,1.885-0.687,2.683
		c-0.37,0.799-0.858,1.479-1.464,2.04c-0.607,0.562-1.316,0.991-2.129,1.287c-0.813,0.295-1.707,0.444-2.683,0.444
		c-1.212,0-2.303-0.211-3.271-0.633c-0.969-0.421-1.786-1.002-2.451-1.741c-0.665-0.739-1.176-1.608-1.53-2.606
		C0.925,10.59,0.748,9.514,0.748,8.361c0-1.183,0.177-2.281,0.532-3.294c0.354-1.013,0.865-1.896,1.53-2.65
		c0.665-0.755,1.482-1.346,2.451-1.775C6.229,0.215,7.32,0,8.532,0c0.872,0,1.697,0.126,2.473,0.377
		c0.776,0.251,1.471,0.617,2.085,1.098c0.613,0.48,1.12,1.076,1.519,1.785c0.4,0.71,0.651,1.523,0.754,2.439h-3.371
		C11.932,5.301,11.8,4.935,11.593,4.602z"/>
	<path fill="#000000" d="M20.463,13.462c0.472,0.458,1.153,0.687,2.04,0.687c0.636,0,1.183-0.159,1.641-0.477
		c0.458-0.317,0.739-0.654,0.843-1.009h2.773c-0.444,1.375-1.124,2.359-2.041,2.95c-0.917,0.591-2.026,0.887-3.327,0.887
		c-0.902,0-1.715-0.144-2.439-0.432c-0.724-0.289-1.338-0.698-1.841-1.231c-0.503-0.532-0.892-1.168-1.165-1.907
		c-0.274-0.739-0.41-1.553-0.41-2.439c0-0.857,0.14-1.656,0.421-2.395c0.281-0.739,0.68-1.379,1.198-1.918
		c0.518-0.539,1.135-0.965,1.852-1.275c0.717-0.311,1.512-0.466,2.384-0.466c0.976,0,1.826,0.189,2.551,0.565
		c0.724,0.378,1.319,0.884,1.785,1.52c0.466,0.636,0.802,1.36,1.01,2.173c0.206,0.813,0.28,1.663,0.221,2.55h-8.272
		C19.732,12.264,19.99,13.004,20.463,13.462z M24.023,7.43c-0.378-0.413-0.951-0.621-1.719-0.621c-0.503,0-0.921,0.086-1.253,0.255
		c-0.333,0.17-0.599,0.381-0.798,0.632c-0.2,0.252-0.341,0.518-0.422,0.799c-0.081,0.281-0.13,0.532-0.144,0.754h5.123
		C24.663,8.449,24.4,7.843,24.023,7.43z"/>
	<path fill="#000000" d="M32.372,4.746v2.129h0.045c0.148-0.355,0.347-0.684,0.599-0.987c0.251-0.303,0.54-0.562,0.865-0.776
		c0.325-0.214,0.673-0.381,1.043-0.499c0.37-0.118,0.754-0.177,1.153-0.177c0.207,0,0.436,0.037,0.688,0.111v2.927
		c-0.149-0.03-0.326-0.055-0.533-0.078c-0.206-0.022-0.407-0.033-0.598-0.033c-0.577,0-1.064,0.097-1.464,0.288
		c-0.4,0.192-0.722,0.454-0.965,0.787c-0.244,0.333-0.418,0.721-0.521,1.164c-0.103,0.444-0.155,0.924-0.155,1.441v5.168h-3.149
		V4.746H32.372z"/>
	<path fill="#000000" d="M45.191,4.746v2.107h-2.307v5.677c0,0.533,0.09,0.887,0.267,1.065c0.177,0.177,0.532,0.266,1.063,0.266
		c0.177,0,0.348-0.008,0.511-0.023c0.162-0.014,0.317-0.036,0.466-0.066v2.44c-0.266,0.044-0.563,0.074-0.888,0.088
		c-0.324,0.015-0.642,0.023-0.953,0.023c-0.488,0-0.951-0.034-1.387-0.1c-0.436-0.066-0.819-0.195-1.153-0.388
		c-0.333-0.193-0.595-0.466-0.788-0.822c-0.192-0.355-0.287-0.82-0.287-1.396V6.853h-1.908V4.746h1.908V1.309h3.148v3.438H45.191z"
		/>
	<path fill="#000000" d="M46.787,2.972V0.377h3.149v2.595H46.787z M49.937,4.746v11.466h-3.149V4.746H49.937z"/>
	<path fill="#000000" d="M51.223,6.853V4.746h1.885V3.859c0-1.02,0.317-1.855,0.953-2.506c0.636-0.651,1.598-0.976,2.884-0.976
		c0.28,0,0.562,0.011,0.843,0.033c0.279,0.022,0.553,0.041,0.819,0.055v2.351c-0.37-0.045-0.754-0.067-1.153-0.067
		c-0.428,0-0.736,0.1-0.92,0.3c-0.185,0.199-0.277,0.536-0.277,1.009v0.687h2.172v2.107h-2.172v9.359h-3.149V6.853H51.223z"/>
	<path fill="#000000" d="M60.338,2.972V0.377h3.15v2.595H60.338z M63.488,4.746v11.466h-3.15V4.746H63.488z"/>
	<path fill="#000000" d="M68.454,13.462c0.474,0.458,1.154,0.687,2.04,0.687c0.636,0,1.183-0.159,1.641-0.477
		c0.459-0.317,0.74-0.654,0.843-1.009h2.772c-0.442,1.375-1.124,2.359-2.039,2.95c-0.919,0.591-2.026,0.887-3.327,0.887
		c-0.903,0-1.715-0.144-2.44-0.432c-0.724-0.289-1.338-0.698-1.84-1.231c-0.503-0.532-0.891-1.168-1.164-1.907
		c-0.273-0.739-0.411-1.553-0.411-2.439c0-0.857,0.141-1.656,0.422-2.395c0.281-0.739,0.679-1.379,1.197-1.918
		c0.517-0.539,1.134-0.965,1.851-1.275c0.718-0.311,1.512-0.466,2.385-0.466c0.976,0,1.826,0.189,2.551,0.565
		c0.724,0.378,1.319,0.884,1.785,1.52c0.466,0.636,0.802,1.36,1.008,2.173c0.208,0.813,0.281,1.663,0.222,2.55h-8.272
		C67.723,12.264,67.981,13.004,68.454,13.462z M72.013,7.43c-0.376-0.413-0.951-0.621-1.718-0.621c-0.503,0-0.92,0.086-1.253,0.255
		c-0.333,0.17-0.599,0.381-0.798,0.632c-0.2,0.252-0.34,0.518-0.422,0.799c-0.081,0.281-0.129,0.532-0.143,0.754h5.122
		C72.654,8.449,72.391,7.843,72.013,7.43z"/>
	<path fill="#000000" d="M85.51,14.748c-0.371,0.621-0.855,1.069-1.454,1.342c-0.598,0.274-1.274,0.41-2.029,0.41
		c-0.859,0-1.611-0.166-2.262-0.499c-0.651-0.333-1.187-0.783-1.608-1.353c-0.422-0.569-0.74-1.223-0.953-1.962
		c-0.214-0.739-0.321-1.508-0.321-2.307c0-0.768,0.106-1.512,0.321-2.229c0.214-0.717,0.532-1.349,0.953-1.897
		c0.421-0.546,0.95-0.986,1.586-1.319c0.636-0.333,1.375-0.499,2.218-0.499c0.681,0,1.327,0.144,1.939,0.432
		c0.615,0.289,1.098,0.714,1.454,1.276h0.044V0.377h3.149v15.835h-2.994v-1.464H85.51z M85.375,9.081
		c-0.088-0.435-0.241-0.82-0.454-1.153c-0.214-0.333-0.491-0.602-0.832-0.81c-0.34-0.207-0.768-0.31-1.286-0.31
		s-0.954,0.103-1.309,0.31C81.14,7.326,80.855,7.6,80.64,7.94c-0.214,0.34-0.369,0.728-0.465,1.164
		c-0.097,0.436-0.144,0.891-0.144,1.364c0,0.443,0.051,0.887,0.154,1.33c0.104,0.444,0.271,0.84,0.5,1.187
		c0.23,0.348,0.517,0.629,0.865,0.843c0.347,0.215,0.765,0.321,1.253,0.321c0.517,0,0.95-0.103,1.297-0.311
		c0.347-0.207,0.624-0.484,0.831-0.832c0.206-0.347,0.355-0.743,0.443-1.186c0.089-0.444,0.134-0.902,0.134-1.375
		C85.51,9.973,85.465,9.518,85.375,9.081z"/>
	<path fill="#000000" d="M25.784,41.965h18.357c4.466,0,10.35,0,13.396,1.843c3.331,1.984,5.952,5.598,5.952,10.561
		c0,5.385-2.833,9.426-7.511,11.338v0.142c6.24,1.276,9.638,5.955,9.638,12.192c0,7.439-5.317,14.528-15.379,14.528H25.784V41.965z
		 M32.513,63.723h13.473c7.653,0,10.773-2.763,10.773-8.079c0-7.019-4.96-8.008-10.773-8.008H32.513V63.723z M32.513,86.899h16.875
		c5.81,0,9.496-3.544,9.496-9.073c0-6.591-5.315-8.433-10.988-8.433H32.513V86.899z"/>
	<path fill="#000000" d="M82.832,67.289c0,21.259-17.232,38.492-38.494,38.492c-21.258,0-38.491-17.233-38.491-38.492
		C5.847,46.032,23.08,28.8,44.338,28.8C65.6,28.8,82.832,46.032,82.832,67.289z M44.338,22.929C19.852,22.929,0,42.78,0,67.267
		c0,24.486,19.852,44.337,44.338,44.337c24.49,0,44.341-19.851,44.341-44.337C88.679,42.78,68.828,22.929,44.338,22.929z"/>
	<path fill="#000000" d="M8.185,121.182c-0.159-1.114-1.226-1.963-2.451-1.963c-2.213,0-3.046,1.885-3.046,3.848
		c0,1.866,0.833,3.75,3.046,3.75c1.505,0,2.358-1.036,2.542-2.512h2.39c-0.253,2.795-2.184,4.584-4.932,4.584
		c-3.468,0-5.508-2.59-5.508-5.822c0-3.33,2.04-5.92,5.508-5.92c2.465,0,4.536,1.445,4.836,4.035H8.185z"/>
	<path fill="#000000" d="M15.811,120.289c2.559,0,4.208,1.693,4.208,4.284c0,2.574-1.648,4.27-4.208,4.27
		c-2.543,0-4.19-1.695-4.19-4.27C11.621,121.982,13.268,120.289,15.811,120.289z M15.811,127.163c1.523,0,1.977-1.303,1.977-2.589
		c0-1.302-0.455-2.605-1.977-2.605c-1.506,0-1.964,1.303-1.964,2.605C13.847,125.86,14.305,127.163,15.811,127.163z"/>
	<path fill="#000000" d="M21.305,120.508h2.117v1.506h0.032c0.407-1.019,1.507-1.725,2.592-1.725c0.156,0,0.343,0.03,0.487,0.077
		v2.072c-0.208-0.047-0.535-0.076-0.801-0.076c-1.635,0-2.201,1.177-2.201,2.604v3.658h-2.226V120.508z"/>
	<path fill="#000000" d="M27.724,120.508h2.121v1.035h0.03c0.533-0.863,1.411-1.254,2.415-1.254c2.546,0,3.689,2.055,3.689,4.362
		c0,2.167-1.191,4.193-3.563,4.193c-0.973,0-1.898-0.424-2.431-1.225h-0.033v3.862h-2.228V120.508z M33.751,124.59
		c0-1.29-0.518-2.622-1.946-2.622c-1.46,0-1.93,1.303-1.93,2.622c0,1.317,0.502,2.572,1.946,2.572
		C33.282,127.163,33.751,125.907,33.751,124.59z"/>
	<path fill="#000000" d="M41.252,120.289c2.56,0,4.211,1.693,4.211,4.284c0,2.574-1.651,4.27-4.211,4.27
		c-2.542,0-4.189-1.695-4.189-4.27C37.063,121.982,38.71,120.289,41.252,120.289z M41.252,127.163c1.523,0,1.979-1.303,1.979-2.589
		c0-1.302-0.456-2.605-1.979-2.605c-1.505,0-1.962,1.303-1.962,2.605C39.29,125.86,39.747,127.163,41.252,127.163z"/>
	<path fill="#000000" d="M46.906,120.508h2.119v1.506h0.034c0.406-1.019,1.505-1.725,2.588-1.725c0.156,0,0.346,0.03,0.487,0.077
		v2.072c-0.204-0.047-0.534-0.076-0.801-0.076c-1.632,0-2.198,1.177-2.198,2.604v3.658h-2.229V120.508z"/>
	<path fill="#000000" d="M52.916,123.004c0.127-2.089,1.994-2.715,3.816-2.715c1.615,0,3.564,0.36,3.564,2.304v4.224
		c0,0.739,0.077,1.475,0.284,1.806h-2.263c-0.076-0.253-0.142-0.519-0.159-0.786c-0.704,0.74-1.739,1.006-2.729,1.006
		c-1.539,0-2.762-0.769-2.762-2.435c0-1.835,1.383-2.274,2.762-2.463c1.366-0.205,2.639-0.157,2.639-1.069
		c0-0.955-0.663-1.097-1.445-1.097c-0.848,0-1.396,0.345-1.477,1.225H52.916z M58.067,124.651c-0.38,0.332-1.163,0.345-1.854,0.472
		c-0.691,0.139-1.319,0.378-1.319,1.193c0,0.832,0.644,1.035,1.367,1.035c1.74,0,1.806-1.379,1.806-1.867V124.651z"/>
	<path fill="#000000" d="M64.845,120.508h1.633v1.491h-1.633v4.016c0,0.756,0.189,0.944,0.941,0.944
		c0.236,0,0.457-0.016,0.692-0.061v1.742c-0.379,0.063-0.866,0.078-1.305,0.078c-1.362,0-2.555-0.316-2.555-1.932v-4.787h-1.352
		v-1.491h1.352v-2.435h2.227V120.508z"/>
	<path fill="#000000" d="M69.837,119.252h-2.229v-1.838h2.229V119.252z M67.608,120.508h2.229v8.116h-2.229V120.508z"/>
	<path fill="#000000" d="M75.218,120.289c2.561,0,4.212,1.693,4.212,4.284c0,2.574-1.651,4.27-4.212,4.27
		c-2.54,0-4.187-1.695-4.187-4.27C71.031,121.982,72.677,120.289,75.218,120.289z M75.218,127.163c1.526,0,1.98-1.303,1.98-2.589
		c0-1.302-0.454-2.605-1.98-2.605c-1.506,0-1.962,1.303-1.962,2.605C73.256,125.86,73.712,127.163,75.218,127.163z"/>
	<path fill="#000000" d="M80.869,120.508h2.12v1.131h0.047c0.565-0.911,1.539-1.35,2.481-1.35c2.37,0,2.966,1.333,2.966,3.343v4.992
		h-2.229v-4.585c0-1.333-0.393-1.995-1.427-1.995c-1.211,0-1.728,0.677-1.728,2.325v4.254h-2.229V120.508z"/>
	<rect x="0.165" y="135.528" fill="#000000" width="88.391" height="5.655"/>
	<g>
		<path fill="#000000" d="M90.489,118.851c-0.227,0.227-0.501,0.341-0.822,0.341c-0.321,0-0.595-0.114-0.821-0.341
			c-0.224-0.226-0.337-0.501-0.337-0.824c0-0.318,0.114-0.592,0.341-0.818c0.225-0.227,0.496-0.338,0.817-0.338
			c0.32,0,0.595,0.112,0.822,0.338c0.227,0.225,0.339,0.498,0.339,0.818C90.828,118.349,90.716,118.624,90.489,118.851z
			 M88.962,117.323c-0.194,0.195-0.291,0.43-0.291,0.707c0,0.277,0.096,0.516,0.289,0.711c0.195,0.195,0.43,0.294,0.708,0.294
			c0.276,0,0.513-0.098,0.705-0.294c0.195-0.195,0.292-0.434,0.292-0.711c0-0.277-0.097-0.512-0.292-0.707
			c-0.195-0.195-0.43-0.294-0.705-0.294C89.391,117.029,89.157,117.127,88.962,117.323z M89.645,117.387
			c0.158,0,0.273,0.017,0.348,0.046c0.131,0.054,0.197,0.162,0.197,0.322c0,0.115-0.041,0.199-0.124,0.252
			c-0.044,0.029-0.106,0.049-0.184,0.062c0.099,0.016,0.173,0.057,0.219,0.125c0.045,0.068,0.068,0.133,0.068,0.198v0.093
			c0,0.03,0.001,0.062,0.004,0.094c0.002,0.034,0.005,0.056,0.011,0.066l0.007,0.015H89.98c-0.001-0.004-0.001-0.008-0.002-0.011
			c-0.001-0.005-0.002-0.01-0.003-0.015l-0.005-0.041v-0.1c0-0.147-0.04-0.245-0.12-0.292c-0.048-0.027-0.131-0.041-0.251-0.041
			h-0.176v0.501h-0.224v-1.274H89.645z M89.887,117.588c-0.056-0.031-0.147-0.047-0.272-0.047h-0.191v0.461h0.203
			c0.095,0,0.167-0.008,0.214-0.026c0.088-0.037,0.132-0.101,0.132-0.201C89.972,117.682,89.943,117.621,89.887,117.588z"/>
	</g>
</g>
</svg>
